<svg xmlns="http://www.w3.org/2000/svg" fill="none" viewBox="0 0 87 35" style="height: 35px;"><path stroke="#101926" stroke-width="3" d="M82.138.386H4.862C2.389.386.384 2.402.384 4.89v25.22c0 2.488 2.005 4.504 4.478 4.504h77.276c2.473 0 4.478-2.016 4.478-4.504V4.89c0-2.488-2.005-4.504-4.478-4.504Z"></path><path fill="#101926" fill-rule="evenodd" d="M6.653 4.632c-1.13 0-2.047.922-2.047 2.06v21.617c0 1.137.916 2.059 2.047 2.059h21.494c1.13 0 2.047-.922 2.047-2.06V6.692a2.053 2.053 0 0 0-2.047-2.059H6.653Zm17.86 2.116-12.23 14.6v-6.911h-3.96v9.872c0 2.781 3.32 4.072 5.077 1.974L27.501 9.45l-2.988-2.702Z" clip-rule="evenodd"></path><path fill="#101926" d="m35.22 21.71 2.361-6.239h1.777l2.335 6.239h-1.812l-1.733-5.301h.627l-1.778 5.301H35.22Zm1.534-1.051v-1.367h3.467v1.367h-3.467Zm8.205 1.156a3.7 3.7 0 0 1-1.333-.236 3.368 3.368 0 0 1-1.071-.684 3.186 3.186 0 0 1-.723-1.025 3.266 3.266 0 0 1-.253-1.288c0-.467.084-.897.253-1.288a3.15 3.15 0 0 1 .714-1.017 3.321 3.321 0 0 1 1.072-.665 3.515 3.515 0 0 1 1.324-.246c.482 0 .923.076 1.324.228.4.152.75.362 1.046.63l-1.16 1.175a1.484 1.484 0 0 0-.513-.36 1.708 1.708 0 0 0-.697-.13c-.232 0-.447.037-.645.113a1.379 1.379 0 0 0-.496.333 1.6 1.6 0 0 0-.331.535 1.988 1.988 0 0 0-.114.692c0 .263.038.5.114.71a1.501 1.501 0 0 0 .827.867c.198.076.413.114.645.114.261 0 .493-.04.697-.123.209-.081.389-.201.54-.359l1.167 1.174a3.557 3.557 0 0 1-1.036.631c-.384.146-.834.22-1.35.22Zm5.811 0a3.7 3.7 0 0 1-1.333-.236 3.367 3.367 0 0 1-1.071-.684 3.185 3.185 0 0 1-.724-1.025 3.267 3.267 0 0 1-.252-1.288c0-.467.084-.897.252-1.288a3.15 3.15 0 0 1 .715-1.017 3.32 3.32 0 0 1 1.072-.665 3.515 3.515 0 0 1 1.324-.246c.482 0 .923.076 1.324.228.4.152.75.362 1.046.63l-1.16 1.175a1.488 1.488 0 0 0-.513-.36 1.708 1.708 0 0 0-.697-.13 1.78 1.78 0 0 0-.645.113 1.381 1.381 0 0 0-.496.333c-.14.146-.25.324-.332.535a1.99 1.99 0 0 0-.113.692c0 .263.038.5.113.71.082.204.192.38.332.525.139.146.305.26.496.342.198.076.412.114.645.114.261 0 .493-.04.697-.123.209-.081.389-.201.54-.359l1.167 1.174a3.556 3.556 0 0 1-1.036.631c-.384.146-.834.22-1.35.22Zm2.991-.105v-6.239h1.742v6.239h-1.742Zm1.412 0v-1.454H58.5v1.454h-3.328Zm0-2.47v-1.42h3.005v1.42h-3.005Zm0-2.314V15.47h3.275v1.455h-3.275Zm5.564 2.594v-1.262h1.124a.841.841 0 0 0 .366-.08.688.688 0 0 0 .278-.253.823.823 0 0 0 .105-.43.772.772 0 0 0-.105-.42.616.616 0 0 0-.278-.254.77.77 0 0 0-.366-.088h-1.124v-1.262H62.2c.401 0 .761.082 1.08.246.326.157.581.388.767.692.192.298.288.66.288 1.086 0 .421-.096.783-.288 1.087a1.86 1.86 0 0 1-.766.7c-.32.159-.68.238-1.08.238h-1.464Zm-1.412 2.19v-6.239h1.743v6.239h-1.743Zm7.105 0v-6.239h1.742v6.239H66.43Zm-1.856-4.749v-1.49h5.463v1.49h-5.463Zm6.118 4.749v-6.239h1.743v6.239h-1.743Zm1.411 0v-1.454h3.328v1.454h-3.328Zm0-2.47v-1.42h3.006v1.42h-3.006Zm0-2.314V15.47h3.276v1.455h-3.276Zm5.32 4.784v-1.49h1.447c.325 0 .607-.058.845-.175.238-.123.421-.307.549-.552.127-.245.191-.549.191-.911s-.066-.663-.2-.903a1.22 1.22 0 0 0-.549-.534 1.77 1.77 0 0 0-.836-.184h-1.534v-1.49h1.534c.488 0 .935.073 1.341.22.413.145.77.356 1.072.63.302.275.534.605.697.99.168.38.253.806.253 1.28 0 .473-.085.902-.253 1.288-.163.38-.395.707-.697.981a3.138 3.138 0 0 1-1.063.631 3.919 3.919 0 0 1-1.333.219h-1.464Zm-1.167 0v-6.239H78v6.239h-1.743Zm-40.345 6.615v-.487h1.115a.85.85 0 0 0 .407-.095.685.685 0 0 0 .283-.267.764.764 0 0 0 .106-.41.763.763 0 0 0-.106-.409.685.685 0 0 0-.283-.267.851.851 0 0 0-.407-.095h-1.115v-.486h1.15c.252 0 .477.051.673.154a1.214 1.214 0 0 1 .649 1.104c0 .253-.059.474-.177.664a1.205 1.205 0 0 1-.472.44 1.43 1.43 0 0 1-.672.154h-1.15Zm-.371 1.602v-4.118h.554v4.118h-.554Zm4.602.06a1.43 1.43 0 0 1-.744-.197 1.464 1.464 0 0 1-.525-.528 1.484 1.484 0 0 1-.194-.753 1.455 1.455 0 0 1 1.463-1.46c.271 0 .517.065.737.196.224.126.402.3.531.522.13.221.195.469.195.742 0 .277-.065.528-.195.753a1.45 1.45 0 0 1-.53.528 1.42 1.42 0 0 1-.738.196Zm0-.517a.898.898 0 0 0 .472-.125.892.892 0 0 0 .324-.338 1.03 1.03 0 0 0 .118-.498.954.954 0 0 0-.123-.487.849.849 0 0 0-.325-.332.863.863 0 0 0-.466-.125.895.895 0 0 0-.797.457.99.99 0 0 0-.118.487c0 .186.04.352.118.498a.893.893 0 0 0 .325.338.898.898 0 0 0 .472.125Zm2.783.457-1.11-2.819h.555l.803 2.196h-.177l.796-2.196h.307l.796 2.196h-.176l.802-2.196h.554l-1.103 2.819h-.313l-.808-2.13h.195l-.814 2.13h-.307Zm4.84.06c-.28 0-.531-.064-.755-.19a1.45 1.45 0 0 1-.532-.529 1.464 1.464 0 0 1-.194-.753c0-.277.063-.527.189-.748a1.432 1.432 0 0 1 1.256-.718c.26 0 .488.06.685.178.2.119.356.283.466.492a1.465 1.465 0 0 1 .165.843 1.507 1.507 0 0 1-.024.154h-2.365v-.445h2.082l-.194.172c0-.19-.034-.35-.1-.48a.717.717 0 0 0-.284-.309.827.827 0 0 0-.442-.113.94.94 0 0 0-.479.12.807.807 0 0 0-.318.331c-.075.143-.112.31-.112.505 0 .198.04.372.118.522.079.146.19.261.336.344.146.08.313.119.502.119.157 0 .3-.028.43-.083a.893.893 0 0 0 .343-.25l.342.35a1.3 1.3 0 0 1-.496.362c-.193.084-.4.125-.62.125Zm1.865-.06v-2.819h.53v2.819h-.53Zm.53-1.608-.2-.09c0-.36.083-.646.248-.86.165-.213.403-.32.714-.32.141 0 .27.026.383.077a.86.86 0 0 1 .319.243l-.348.362a.532.532 0 0 0-.195-.136.675.675 0 0 0-.248-.041.653.653 0 0 0-.483.19c-.126.126-.19.318-.19.575Zm3.044 1.667c-.28 0-.532-.063-.756-.19a1.451 1.451 0 0 1-.53-.528 1.464 1.464 0 0 1-.195-.753c0-.277.063-.527.188-.748a1.431 1.431 0 0 1 1.257-.718c.26 0 .488.06.684.178.201.119.357.283.467.492a1.465 1.465 0 0 1 .165.843 1.584 1.584 0 0 1-.024.154h-2.366v-.445h2.083l-.195.172c0-.19-.033-.35-.1-.48a.717.717 0 0 0-.283-.309.827.827 0 0 0-.443-.113.94.94 0 0 0-.477.12.806.806 0 0 0-.319.331c-.075.143-.112.31-.112.505 0 .198.04.372.118.522a.85.85 0 0 0 .336.344c.146.08.313.119.502.119.157 0 .3-.028.43-.083a.894.894 0 0 0 .342-.25l.343.35a1.3 1.3 0 0 1-.496.362 1.55 1.55 0 0 1-.62.125Zm3.05 0c-.26 0-.491-.063-.696-.19a1.436 1.436 0 0 1-.49-.528 1.565 1.565 0 0 1-.176-.747c0-.277.058-.527.176-.748a1.44 1.44 0 0 1 .49-.528c.205-.13.437-.196.697-.196.208 0 .397.045.566.137.169.086.305.21.407.367.106.155.165.334.177.54v.849a1.094 1.094 0 0 1-.578.913c-.17.088-.36.131-.572.131Zm.089-.504c.177 0 .33-.042.46-.125a.861.861 0 0 0 .313-.338 1.08 1.08 0 0 0 .112-.498c0-.194-.04-.363-.118-.505a.862.862 0 0 0-.313-.338.834.834 0 0 0-.46-.125.866.866 0 0 0-.466.125.898.898 0 0 0-.319.344 1.043 1.043 0 0 0-.112.493c0 .19.038.358.112.504a.91.91 0 0 0 .319.338.898.898 0 0 0 .472.125Zm1.386.445h-.536v-.76l.1-.688-.1-.682V25.69h.536v4.237Zm3.476.06c-.213 0-.405-.044-.578-.131a1.09 1.09 0 0 1-.579-.914v-.849c.012-.206.07-.385.171-.54a1.09 1.09 0 0 1 .413-.367 1.2 1.2 0 0 1 .573-.137c.255 0 .485.065.69.196.208.13.371.306.49.528.118.221.177.47.177.748 0 .276-.06.526-.178.747a1.372 1.372 0 0 1-.49.528c-.204.127-.434.19-.69.19Zm-1.475-.06V25.69h.53v2.107l-.1.682.1.688v.76h-.53Zm1.386-.445a.868.868 0 0 0 .785-.463c.078-.146.118-.315.118-.504 0-.186-.04-.352-.118-.499a.852.852 0 0 0-.319-.338.854.854 0 0 0-.46-.125.865.865 0 0 0-.466.125.81.81 0 0 0-.313.338 1.094 1.094 0 0 0-.112.505c0 .185.035.352.106.498a.86.86 0 0 0 .313.338.886.886 0 0 0 .466.125Zm2.864.469-1.215-2.843h.59l.902 2.225h-.188l.95-2.225h.59l-1.31 2.843h-.319Zm-.802 1.157.826-1.703.295.546-.531 1.157h-.59Z"></path><mask id="a" width="16" height="6" x="66" y="25" maskUnits="userSpaceOnUse" style="mask-type: luminance;"><path fill="#fff" d="M81.71 25.773H66.972v4.437H81.71v-4.437Z"></path></mask><g fill="#101926" mask="url(#a)"><path d="M68.2 27.04c0-.19.205-.338.512-.338.451 0 .98.192 1.305.443l.342-.886c-.42-.34-1.007-.486-1.596-.486-.989 0-1.689.617-1.68 1.415.017 1.572 2.269 1.086 2.278 1.737 0 .2-.24.348-.614.348a2.376 2.376 0 0 1-1.416-.452l-.359.851c.503.365 1.16.539 1.877.539.972 0 1.654-.573 1.654-1.363-.026-1.529-2.294-1.19-2.302-1.807Zm4.08-1.181h-1.203v4.264h1.202v-4.264Zm8.228.001v.607c-.29-.442-.742-.694-1.33-.694-1.084 0-1.946.99-1.946 2.213 0 1.224.862 2.224 1.945 2.224.588 0 1.04-.253 1.33-.695v.608h1.203v-4.264h-1.202Zm-1.049 3.195a1.05 1.05 0 0 1-1.048-1.067c0-.6.469-1.068 1.048-1.068.58 0 1.049.468 1.049 1.067 0 .6-.46 1.068-1.049 1.068Z"></path><path d="M77.255 25.859H75.78l-1.171 1.52h-.278v-1.52h-1.203v4.264h1.203v-1.668h.273l1.245 1.668h1.543l-1.784-2.206 1.648-2.058Z"></path></g><path fill="#101926" d="M68.35 4.624v1.624h-3.924v1.379h3.222V9.25h-3.222v2.387h-1.933V4.624h5.857Zm.557 6.163.538-1.345c.588.466 1.357.714 2.124.714.564 0 .921-.233.921-.548-.012-1.03-3.392-.261-3.416-2.747-.013-1.262 1.036-2.237 2.521-2.237.883 0 1.767.233 2.394.769l-.511 1.4c-.487-.4-1.28-.702-1.958-.702-.46 0-.769.233-.769.536.012.975 3.417.44 3.455 2.855 0 1.25-1.024 2.155-2.483 2.155-1.075 0-2.06-.275-2.816-.851v.001Zm13.109-6.024V11.5h-1.947v-.962c-.47.7-1.203 1.099-2.155 1.099-1.755 0-3.15-1.578-3.15-3.513 0-1.936 1.395-3.5 3.15-3.5.952 0 1.686.398 2.155 1.099V4.76h1.947v.002Zm-1.947 3.362c0-.933-.747-1.66-1.7-1.66-.952 0-1.699.742-1.699 1.66 0 .919.76 1.66 1.7 1.66.939 0 1.699-.713 1.699-1.66Zm-37.832 2.662.538-1.345c.588.466 1.357.714 2.124.714.564 0 .921-.233.921-.548-.012-1.03-3.392-.261-3.416-2.747-.013-1.262 1.036-2.237 2.521-2.237.883 0 1.767.233 2.394.769l-.511 1.4c-.487-.4-1.28-.702-1.958-.702-.46 0-.769.233-.769.536.012.975 3.417.44 3.455 2.855 0 1.25-1.024 2.155-2.483 2.155-1.075 0-2.06-.275-2.816-.851v.001Zm13.109-6.024V11.5h-1.947v-.962c-.47.7-1.202 1.099-2.155 1.099-1.754 0-3.15-1.578-3.15-3.513 0-1.936 1.396-3.5 3.15-3.5.953 0 1.686.398 2.155 1.099V4.76h1.947v.002Zm-1.947 3.362c0-.933-.747-1.66-1.7-1.66-.952 0-1.699.742-1.699 1.66 0 .919.76 1.66 1.7 1.66.939 0 1.699-.713 1.699-1.66ZM39.476 4.624V7.32H37.75V4.624h-1.925v7.013h1.925V8.942h1.727v2.695h1.925V4.624h-1.925Zm20.117.008h-1.395v7.005h1.395V4.632Z"></path></svg>